<?xml version="1.0" encoding="iso-8859-1"?>
<!-- Uploaded to: SVG Repo, www.svgrepo.com, Generator: SVG Repo Mixer Tools -->
<svg height="800px" width="800px" version="1.1" id="Layer_1" xmlns="http://www.w3.org/2000/svg" xmlns:xlink="http://www.w3.org/1999/xlink" 
	 viewBox="0 0 504 504" xml:space="preserve">
<circle style="fill:#84DBFF;" cx="252" cy="252" r="252"/>
<polygon style="fill:#2B3B4E;" points="367.8,203.5 258.7,94.4 252.3,100.8 245.8,94.4 136.7,203.5 150.1,216.9 252.3,114.8 
	354.4,216.9 "/>
<circle style="fill:#54C0EB;" cx="252" cy="101.1" r="35.6"/>
<circle style="fill:#FFFFFF;" cx="252" cy="101.1" r="20.4"/>
<path style="fill:#E6E9EE;" d="M394.8,378.2H109.2c-2.4,0-4.4-2-4.4-4.4V197.9c0-2.4,2-4.4,4.4-4.4h285.5c2.4,0,4.4,2,4.4,4.4v175.9
	C399.2,376.2,397.2,378.2,394.8,378.2z"/>
<g>
	<path style="fill:#FF7058;" d="M194.7,277.2c0,8.2-3.3,13.6-9.8,16l13,18.4h-14.1l-11.4-16.4h-7.9v16.4H153v-51.4h19.5
		c8,0,13.7,1.3,17.1,4C193,266.9,194.7,271.2,194.7,277.2z M180.9,283.3c1.4-1.3,2.1-3.3,2.1-6.1c0-2.8-0.7-4.7-2.2-5.7
		s-4-1.5-7.7-1.5h-8.6v15.2h8.4C176.8,285.2,179.5,284.6,180.9,283.3z"/>
	<path style="fill:#FF7058;" d="M243.5,260.1v10.2h-25.6v10.6h23v9.8h-23v10.7h26.4v10.2h-37.9v-51.4h37.1V260.1z"/>
	<path style="fill:#FF7058;" d="M290.5,260.1H302v51.4h-11.5L266,279.3v32.2h-11.5v-51.4h10.7l25.2,33.1v-33.1H290.5z"/>
	<path style="fill:#FF7058;" d="M336.4,270.1v41.5H325v-41.5h-14.6v-9.9H351v9.9H336.4z"/>
</g>
</svg>